<svg xmlns="http://www.w3.org/2000/svg" xmlns:xlink="http://www.w3.org/1999/xlink" fill-rule="evenodd" stroke-linejoin="round" stroke-miterlimit="1.41421" clip-rule="evenodd" viewBox="0 0 1440 4620">
  <use width="1440" height="4545" transform="translate(0 37)" xlink:href="#_Image1"/>
  <path fill="#1f2d3b" fill-rule="nonzero" d="M0 2194.4351559c241.292 0 361.13 135.3803868 723.875 161.4161849 362.745 26.0357981 477.415-37.7209294 716.125-37.7209294V-1.00074H0v2195.4358959z"/>
  <g fill-rule="nonzero">
    <path fill="#74d9d7" d="M1310.78 1922.05c9.47-4.93 18.41-4.17 23 4.38 4.59 8.57 2.78 21.16-6.6 26.08-9.38 4.92-19.41-1.76-24-10.34-4.59-8.55-1.87-15.2 7.6-20.12zM1238.78 3823.05c9.47-4.93 18.41-4.17 23 4.38 4.59 8.56 2.78 21.16-6.6 26.08-9.38 4.92-19.41-1.76-24-10.33-4.59-8.56-1.87-15.21 7.6-20.13z"/>
    <path fill="url(#_Linear2)" d="M122.391 2009.09c9.96-4.27 18.74-2.2 22.25 8.17 3.51 10.36.22 24.38-9.73 28.65-9.95 4.27-19.09-4.69-22.6-15.05-3.52-10.36.12-17.5 10.08-21.77z"/>
    <path fill="url(#_Linear3)" d="M157.391 3145.09c9.96-4.27 18.74-2.2 22.25 8.17 3.51 10.36.22 24.38-9.73 28.65-9.95 4.27-19.09-4.69-22.6-15.05-3.52-10.37.12-17.5 10.08-21.77z"/>
    <path fill="url(#_Linear4)" d="M944.391 1159.09c9.96-4.27 18.74-2.2 22.249 8.17 3.511 10.36.221 24.38-9.729 28.65s-19.09-4.7-22.6-15.05c-3.52-10.36.12-17.5 10.08-21.77z"/>
    <path fill="url(#_Linear5)" d="M1431.39 1717.09c9.96-4.27 18.74-2.2 22.25 8.17 3.51 10.36.22 24.38-9.73 28.65-9.95 4.27-19.09-4.69-22.6-15.05-3.52-10.36.12-17.5 10.08-21.77z"/>
    <path fill="#74d9d7" d="M96.001 1124.89c20.969-8 39.45-4.05 46.85 15.38 7.399 19.43.459 45.74-20.501 53.75-20.959 8.01-40.219-8.82-47.609-28.25-7.38-19.43.29-32.88 21.26-40.88z"/>
    <path fill="#9c7ef0" d="M1367.1 1154.36c-.46-3.3.72-5.88 3.8-6.3 3.08-.42 6.67 1.45 7.13 4.79.46 3.34-2.64 5.58-5.71 6-3.08.42-4.76-1.19-5.22-4.49zM417.096 3124.36c-.46-3.3.72-5.88 3.8-6.3 3.08-.42 6.67 1.45 7.13 4.79.46 3.34-2.64 5.58-5.71 6-3.08.42-4.76-1.19-5.22-4.49z"/>
    <path fill="#f7f7ff" d="M1275.8 3097.62c40.89-15.61 76.98-8 91.38 29.88 14.4 37.88.83 89.19-40 104.8s-78.41-17.2-92.83-55.09c-14.4-37.88.56-63.98 41.45-79.59z"/>
    <path fill="#f459a5" d="M287.348 1265.28c-1.32-6.14 1.08-10.74 7.84-11.24s14.88 3.3 16.2 9.45c1.32 6.15-5.32 9.97-12.08 10.47s-10.64-2.54-11.96-8.68z"/>
  </g>
  <defs>
    <linearGradient id="_Linear2" x1="0" x2="1" y1="0" y2="0" gradientTransform="matrix(29.7516 21.1594 -21.1594 29.7516 113.385 2014.83)" gradientUnits="userSpaceOnUse">
      <stop offset="0" stop-color="#616cf6"/>
      <stop offset="1" stop-color="#76e3d4"/>
    </linearGradient>
    <linearGradient id="_Linear3" x1="0" x2="1" y1="0" y2="0" gradientTransform="matrix(96.9551 85.6551 -85.6551 96.9551 123.089 3117.83)" gradientUnits="userSpaceOnUse">
      <stop offset="0" stop-color="#fad961"/>
      <stop offset="1" stop-color="#f66b1c"/>
    </linearGradient>
    <linearGradient id="_Linear4" x1="0" x2="1" y1="0" y2="0" gradientTransform="matrix(96.9551 85.6551 -85.6551 96.9551 910.089 1131.83)" gradientUnits="userSpaceOnUse">
      <stop offset="0" stop-color="#fad961"/>
      <stop offset="1" stop-color="#f66b1c"/>
    </linearGradient>
    <linearGradient id="_Linear5" x1="0" x2="1" y1="0" y2="0" gradientTransform="matrix(96.9551 85.6551 -85.6551 96.9551 1397.09 1689.83)" gradientUnits="userSpaceOnUse">
      <stop offset="0" stop-color="#fad961"/>
      <stop offset="1" stop-color="#f66b1c"/>
    </linearGradient>
  </defs>
</svg>