<svg xmlns="http://www.w3.org/2000/svg" viewBox="0 0 921.67 831.295"><circle cx="436.469" cy="576.556" r="216.462" fill="#f2f2f2"/><ellipse cx="405.89" cy="803.234" fill="#3f3d56" rx="205.412" ry="28.061"/><ellipse cx="550.935" cy="262.308" fill="#3f3d56" rx="14.54" ry="7.058" transform="rotate(-18.58 376.34774203 670.51654274)"/><path fill="#df691a" d="M382.29509 260.12625l76.27461-34.75382s129.22209-48.84366 239.76555 70.3846c0 0-49.54223-31.8027-87.09376 10.207 0 0-70.66206-19.1171-129.961 51.12411 0 0-92.74716 14.04481-131.3753 63.26528 0 0-43.06382-6.62283-60.20459 47.97007a1.6372 1.6372 0 01-2.70874.67441 1.62664 1.62664 0 01-.46047-.85878c-1.6094-8.43728-20.54943-120.98604 95.7637-208.01287z"/><path d="M382.29509 260.12625l76.27461-34.75382s129.22209-48.84366 239.76555 70.3846c0 0-49.54223-31.8027-87.09376 10.207 0 0-70.66206-19.1171-129.961 51.12411 0 0-92.74716 14.04481-131.3753 63.26528 0 0-43.06382-6.62283-60.20459 47.97007a1.6372 1.6372 0 01-2.70874.67441 1.62664 1.62664 0 01-.46047-.85878c-1.6094-8.43728-20.54943-120.98604 95.7637-208.01287z" opacity=".2"/><path fill="#2f2e41" d="M405.524 404.125l31.761 5.294 10.587-50.289-25.585-10.587-16.763 55.582z"/><circle cx="449.196" cy="366.629" r="27.35" fill="#a0616a"/><path fill="#a0616a" d="M437.2852 382.06871s2.64677 33.52578-17.64515 36.17255 17.64515 62.64026 27.35 61.758 27.35-65.287 27.35-65.287-22.93874-15.88068-14.99842-29.99678zM403.31825 504.26134s3.529 25.58546 14.11612 25.58546-7.05806-29.11449-7.05806-29.11449zM557.71331 529.8468s26.46772 22.05643 22.93869 29.11449-26.46772-7.94031-28.23223-25.58546zM398.02475 614.5435l-16.76289 62.64026-18.5274 75.87413h17.64514s6.1758-23.82095 17.64515-36.17255c0 0 11.46934-19.40966 11.46934-32.64352l27.35-64.40478zM470.36984 618.07258l5.29355 59.11123s-.88226 42.34835 0 52.05318 0 23.82095 0 23.82095h15.88063s14.99837-52.05318 10.58708-80.28541l6.1758-66.1693z"/><path fill="#2f2e41" d="M449.19567 455.73719s-23.77-18.83744-17.61966-45.15014c0 0-23.84643 1.03728-33.55126 10.74211s2.64677 42.34835 2.64677 42.34835 21.17417 35.29029 17.64514 51.17092-41.46609 99.69507-29.11449 104.98861 87.34347 23.82095 125.28054-7.05806c0 0 9.70483-87.34347-29.11449-115.5757v-22.05643s7.058-6.1758 3.529-22.05643c0 0 14.99838-27.35 6.17581-32.64352s-29.0887-13.05117-29.0887-13.05117 1.73874 39.51885-16.78866 48.34146z"/><path fill="#2f2e41" d="M403.31825 421.32916s-11.4693-1.76452-22.93865 14.99842-41.46609 43.23061-27.35 56.46447 52.05318 22.05643 52.05318 22.05643l8.82257-15.88063-37.93706-18.52741 31.76126-23.82094zM490.66176 421.32916s12.3516 0 17.64514 14.99837 36.17255 66.1693 36.17255 66.1693l17.64515 27.35-12.3516 14.11612-34.408-38.81932-32.64352-53.8177zM383.90863 751.29337h-24.7032l-5.29355 43.23061s-14.11611 22.93869 7.05806 20.29192 14.11612-26.46772 14.11612-26.46772l5.29354-8.82257 1.76452 18.5274 1.76451-.88226v-20.29192s9.70483-8.82257 0-25.58546zM495.9553 751.29337l-22.93869-1.76451-4.41128 49.40641s-2.64677 18.5274 13.23386 15.88063 10.58706-17.64515 10.58706-17.64515v-27.35zM429.34488 338.8381s-12.85305 4.28435-13.5057 21.2042a30.01115 30.01115 0 00.89217 8.03435c.72373 3.0672 1.189 9.66685-4.41983 18.29121a181.06369 181.06369 0 00-10.27641 17.67686l-.04021.08042 14.11612 1.76452 3.00156-23.39848a116.515 116.515 0 019.25236-32.84814l.09768-.21785s6.1758 11.46935 18.5274 11.46935l-4.41128-4.41129s19.40966 7.94031 26.46772 7.94031c0 0 5.29354 3.529 0 8.82258s-15.88063 17.64514-9.70483 27.35.88225 12.3516.88225 12.3516l9.70483-5.29354 4.41129-2.64677v3.529l22.93869-2.64677s6.1758-.88226-7.05806-15.88063c0 0-3.49462-5.82437-1.96569-10.8478a25.33854 25.33854 0 00.96317-11.85005c-2.96472-16.53945-14.59668-49.42193-59.87323-28.47308z"/><path fill="#3f3d56" d="M567.30773 557.39674c8.72963-8.8774-.939-27.26315-1.69463-28.66107l-99.70247-203.59328a2.596 2.596 0 00-4.6629 2.28336l99.75243 203.69433.028.051c.099.182 9.72559 18.46593 1.15184 23.70465-9.23357 5.64577-20.00163-3.50035-20.10924-3.59337a2.59558 2.59558 0 10-3.39362 3.92828c.5565.4811 13.7801 11.69562 26.21089 4.09426a12.57535 12.57535 0 002.4197-1.90816z"/><path fill="#df691a" d="M375.16263 245.52813l73.87332-33.6597s125.15392-47.306 232.21725 68.16875c0 0-47.98254-30.80149-84.35187 9.88562 0 0-68.43748-18.51526-125.8696 49.51461 0 0-89.8273 13.60266-127.23935 61.27357 0 0-43.00714-6.61412-59.06065 48.95392l-2.221-2.184s-24.45442-114.33247 92.6519-201.95277z"/><path fill="#3f3d56" d="M375.52719 245.31883s-36.17255 121.75151-31.76126 155.27728M413.75682 227.94304s45.58481 102.95475 57.05415 111.77732M448.75454 211.79306s117.34022 70.58058 148.21922 78.52089M272.34194 798.5461c-.212-.34649-5.21175-8.69467-6.94509-26.02988-1.58988-15.90414-.56756-42.71181 13.33526-80.1063 26.33846-70.84137-6.06985-128.00009-6.401-128.56945l1.59889-.92757c.08392.14437 8.44654 14.7176 13.3867 37.92324a165.44659 165.44659 0 01-6.85216 92.218c-26.29335 70.72046-6.74568 104.19892-6.54536 104.52916z"/><circle cx="262.043" cy="547.669" r="12.012" fill="#3f3d56"/><circle cx="299.926" cy="592.02" r="12.012" fill="#3f3d56"/><circle cx="274.055" cy="621.587" r="12.012" fill="#df691a"/><circle cx="305.469" cy="646.534" r="12.012" fill="#df691a"/><circle cx="264.815" cy="685.34" r="12.012" fill="#3f3d56"/><path fill="#3f3d56" d="M279.59832 798.98823s-12.01156-29.56694 24.02314-51.74214zM264.82596 798.4519s-5.46658-31.442-47.77694-31.1725zM191.762 0l42.279 23.132-81.918 54.254-39.187-25.851L191.762 0zM90.089 73.493L0 131.572l41.837 24.865 90.055-60.119-41.803-22.825z"/><path fill="#d0cde1" d="M106.67003 44.66749a35.50777 35.50777 0 00-19.113 24.204 10.49372 10.49372 0 003.44177 10.49713l26.04431 21.99527a12.07189 12.07189 0 0013.651 1.3169c10.58913-5.87205 27.59406-18.1986 20.0009-33.80926a10.79238 10.79238 0 00-3.75976-4.26995l-29.0262-19.19415a11.3309 11.3309 0 00-11.23902-.73994z"/><ellipse cx="301.389" cy="130.984" fill="#3f3d56" rx="42.841" ry="29.094" transform="rotate(-53.33 197.60377892 252.36689649)"/><path d="M148.96282 130.50651c5.28053 3.934 17.83968-3.82122 29.12941-17.57854q1.49993-1.82442 2.96537-3.78865 1.0734-1.443 2.06913-2.88554c10.46805-15.12554 14.60605-29.96212 9.19925-33.98731-5.4465-4.0575-18.62519 4.31143-30.17828 18.87094q-.96769 1.22355-1.91649 2.49625a98.89706 98.89706 0 00-6.05725 9.13963c-7.4461 12.78163-9.86645 24.26479-5.21114 27.73322z" opacity=".2"/><path fill="#d0cde1" d="M154.17396 102.77329l23.91829 10.15468 17.11321 7.26465 2.53083-3.41577-14.60956-10.52307-20.979-15.11637q-.96769 1.22355-1.91649 2.49625a98.89706 98.89706 0 00-6.05728 9.13963z"/><circle cx="199.844" cy="120.82" r="5.199" fill="#d0cde1"/><path fill="#df691a" d="M201.36976 175.73922a2.48185 2.48185 0 011.17624-.59983c28.00239-5.78582 45.62246-21.9089 53.86527-49.28893a2.49108 2.49108 0 014.77075 1.43591c-8.6965 28.88662-28.085 46.62787-57.62822 52.73218a2.49139 2.49139 0 01-2.184-4.27933zM194.47825 154.06245a2.47686 2.47686 0 011.17625-.59983c20.99616-4.33861 34.20718-16.42723 40.388-36.95671a2.49108 2.49108 0 014.77075 1.4359c-6.66287 22.13125-21.51666 35.72308-44.151 40.4a2.49139 2.49139 0 01-2.18405-4.27932zM211.5519 197.93707a2.47682 2.47682 0 011.17625-.59983c27.945-5.774 58.50393-33.73665 66.72989-61.0606a2.49108 2.49108 0 014.77075 1.4359c-8.6898 28.86511-40.97163 58.40431-70.49285 64.50385a2.49138 2.49138 0 01-2.184-4.27932z"/><path fill="#3f3d56" d="M729.909 0L687.63 23.132l81.917 54.254 39.187-25.851L729.909 0zM831.582 73.493l90.088 58.079-41.837 24.865-90.054-60.119 41.803-22.825z"/><path fill="#d0cde1" d="M815.00047 44.66749a35.50777 35.50777 0 0119.113 24.204 10.49372 10.49372 0 01-3.44177 10.49713l-26.04431 21.99527a12.07189 12.07189 0 01-13.651 1.3169c-10.58913-5.87205-27.59406-18.1986-20.0009-33.80926a10.79238 10.79238 0 013.75978-4.27l29.0262-19.19415a11.3309 11.3309 0 0111.239-.73989z"/><ellipse cx="898.611" cy="130.984" fill="#3f3d56" rx="29.094" ry="42.841" transform="rotate(-36.67 777.1983547 323.77691605)"/><path d="M772.70768 130.50651c-5.28053 3.934-17.83968-3.82122-29.12941-17.57854q-1.49992-1.82442-2.96537-3.78865-1.0734-1.443-2.06913-2.88554c-10.46805-15.12554-14.606-29.96212-9.19925-33.98731 5.4465-4.0575 18.62519 4.31143 30.17828 18.87094q.96769 1.22355 1.91649 2.49625a98.89706 98.89706 0 016.05725 9.13963c7.4461 12.78163 9.86645 24.26479 5.21114 27.73322z" opacity=".2"/><path fill="#d0cde1" d="M767.49654 102.77329l-23.91829 10.15468-17.11319 7.26461-2.53083-3.41577 14.60954-10.52307 20.979-15.11637q.96769 1.22355 1.91649 2.49625a98.89706 98.89706 0 016.05728 9.13967z"/><circle cx="721.826" cy="120.82" r="5.199" fill="#d0cde1"/><path fill="#df691a" d="M720.30074 175.73922a2.48185 2.48185 0 00-1.17624-.59983c-28.00239-5.78582-45.62246-21.9089-53.86527-49.28893a2.49108 2.49108 0 00-4.77075 1.43591c8.6965 28.88662 28.085 46.62787 57.62822 52.73218a2.49139 2.49139 0 002.184-4.27933zM727.19225 154.06245a2.47686 2.47686 0 00-1.17625-.59983c-20.99616-4.33861-34.20718-16.42723-40.388-36.95671a2.49108 2.49108 0 00-4.77075 1.4359c6.66287 22.13125 21.51666 35.72308 44.151 40.4a2.49139 2.49139 0 002.184-4.27932zM710.1186 197.93707a2.47682 2.47682 0 00-1.17625-.59983c-27.945-5.774-58.50393-33.73665-66.72989-61.0606a2.49108 2.49108 0 00-4.77075 1.4359c8.6898 28.86511 40.97163 58.40431 70.49285 64.50385a2.49138 2.49138 0 002.184-4.27932z"/></svg>