<svg xmlns="http://www.w3.org/2000/svg" viewBox="0 0 1097.1 811.81"><defs><linearGradient id="a" x1="593.13" x2="593.13" y1="855.9" y2="67.88" gradientUnits="userSpaceOnUse"><stop offset="0" stop-color="gray" stop-opacity=".25"/><stop offset=".54" stop-color="gray" stop-opacity=".12"/><stop offset="1" stop-color="gray" stop-opacity=".1"/></linearGradient></defs><g opacity=".1"><path fill="#df691a" d="M878.46 575.15s-78.32-10.17-19.91 116.59c0 0 53.23-22.81 55.35-74.26a40.94 40.94 0 00-34.33-42.17z"/><path fill="none" stroke="#535461" stroke-miterlimit="10" d="M879.61 574.96s17.73 70.68-21 116.79"/><path fill="none" stroke="#535461" stroke-miterlimit="10" stroke-width="2" d="M857.55 698.28s28.2-69.5 80.86-95.28a113.65 113.65 0 0051.61-50.1 191.13 191.13 0 0012.93-32.47"/><path fill="#df691a" d="M1036.04 504c-5.49 6.9-33.9 17-33.9 17s3.42-30 8.91-36.85a16 16 0 1125 19.88zM1026.29 558.65c-8.36 2.81-37.68-4.18-37.68-4.18s19.15-23.28 27.51-26.09a16 16 0 1110.17 30.27zM973.43 623.26c-8.63-1.79-30.42-22.63-30.42-22.63s28.28-10.43 36.92-8.64a16 16 0 01-6.5 31.26zM922.43 663.14c-8.81-.31-33.81-17.16-33.81-17.16s26.12-15.08 34.93-14.76a16 16 0 01-1.12 31.91zM961.31 534.9c1.13 8.75 20.22 32.07 20.22 32.07s12.57-27.4 11.45-36.15a16 16 0 10-31.67 4.08zM902.25 582.34c3.69 8 28.89 24.55 28.89 24.55s3.8-29.91.11-37.91a16 16 0 10-29 13.37zM851.17 636.28c2.28 8.52 24.33 29.08 24.33 29.08s8.8-28.83 6.51-37.35a16 16 0 10-30.84 8.27z"/><path d="M1036.04 504c-5.49 6.9-33.9 17-33.9 17s3.42-30 8.91-36.85a16 16 0 1125 19.88zM1026.29 558.65c-8.36 2.81-37.68-4.18-37.68-4.18s19.15-23.28 27.51-26.09a16 16 0 1110.17 30.27zM973.43 623.26c-8.63-1.79-30.42-22.63-30.42-22.63s28.28-10.43 36.92-8.64a16 16 0 01-6.5 31.26zM922.43 663.14c-8.81-.31-33.81-17.16-33.81-17.16s26.12-15.08 34.93-14.76a16 16 0 01-1.12 31.91zM961.31 534.9c1.13 8.75 20.22 32.07 20.22 32.07s12.57-27.4 11.45-36.15a16 16 0 10-31.67 4.08zM902.25 582.34c3.69 8 28.89 24.55 28.89 24.55s3.8-29.91.11-37.91a16 16 0 10-29 13.37zM851.17 636.28c2.28 8.52 24.33 29.08 24.33 29.08s8.8-28.83 6.51-37.35a16 16 0 10-30.84 8.27z" opacity=".25"/><path fill="none" stroke="#535461" stroke-miterlimit="10" stroke-width="2" d="M895.11 729.9s28.2-69.5 80.86-95.28a113.65 113.65 0 0051.58-50.11 191.13 191.13 0 0012.93-32.47"/><path fill="#df691a" d="M1073.55 535.6c-5.49 6.9-33.9 17-33.9 17s3.42-30 8.91-36.85a16 16 0 0125 19.88zM1063.82 590.25c-8.36 2.81-37.68-4.18-37.68-4.18s19.15-23.28 27.51-26.09a16 16 0 0110.17 30.27zM1010.96 654.9c-8.63-1.79-30.42-22.63-30.42-22.63s28.28-10.43 36.92-8.64a16 16 0 01-6.5 31.26zM959.95 694.73c-8.81-.31-33.81-17.16-33.81-17.16s26.12-15.06 34.93-14.75a16 16 0 01-1.12 31.91zM998.83 566.54c1.13 8.75 20.22 32.07 20.22 32.07s12.57-27.4 11.45-36.15a16 16 0 10-31.67 4.08zM939.78 613.9c3.69 8 28.89 24.55 28.89 24.55s3.8-29.91.11-37.91a16 16 0 00-29 13.37zM888.7 667.9c2.28 8.52 24.33 29.08 24.33 29.08s8.8-28.83 6.51-37.35a16 16 0 00-30.84 8.27z"/></g><path fill="#df691a" d="M11.85 429.97c17.36 74.2 54.11 138.34 112.19 169.43 120.7 64.61 392.91 31.29 596.07-7a465.21 465.21 0 00264.53-151.2zM1077.2 80.71H965.73a9.635 9.635 0 110-19.27H985a9.635 9.635 0 010-19.27h-13.76a9.635 9.635 0 010-19.27h58.18c-12.91-6-28-10.27-45.38-12.51-158.64-20.38-215.28-6.9-235.26 7-24.65 17.1-52.15 29.68-81.54 35.74-97.89 20.17-280.94 44.47-446.85-7.8-82.46-26-143.75 17.92-180.48 91.28h1056.64c-1.38-21.32-5.51-41-13.09-58.24a9.58 9.58 0 01-6.26 2.34zM2.39 275.1a491.06 491.06 0 004.33 129.46l978.68 35.79a460 460 0 0068-103.7zm387.08 92.35H370.2a9.635 9.635 0 010 19.27H258.73a9.635 9.635 0 110-19.27H278a9.635 9.635 0 010-19.27h-13.76a9.635 9.635 0 010-19.27h111.47a9.635 9.635 0 110 19.27h13.76a9.635 9.635 0 010 19.27zM1096.6 137.28l-1068.49 26C15.12 196.69 6.55 234.46 2.55 273.61h1075.33a456.46 456.46 0 0015.53-70.33c3.2-23.01 4.48-45.27 3.19-66zm-877.13 85.17H200.2a9.635 9.635 0 010 19.27H88.73a9.635 9.635 0 110-19.27H108a9.635 9.635 0 010-19.27H94.24a9.635 9.635 0 010-19.27h111.47a9.635 9.635 0 110 19.27h13.76a9.635 9.635 0 010 19.27z" opacity=".1"/><path fill="url(#a)" d="M990.13 855.4S945.57 611 860.6 571.34c-72-33.63-149.86-56.3-172-62.45A95.61 95.61 0 00677.19 494c-30.26-31.59-48.44-31-51.38-30.61a153.83 153.83 0 01-3-19c-.09-1-.18-1.93-.26-2.92l.26-.13c-.18-1.89-.34-3.84-.48-5.85a150.6 150.6 0 0033.79-24.61c.13.43.24.86.38 1.3q32.71-27.65 64.07-56.8c6-5.61 12.3-11.7 14.34-19.61a28.78 28.78 0 00.75-8.32c.27-6-1.15-12.13-1.39-18.21 0-1 .11-1.93.24-2.88 1.4-9.95 8.32-18.12 14-26.47a124.82 124.82 0 0021.23-71.46 121 121 0 00-5-36c-4.43-14.82-13.65-30.39-29-33.63-5.94-1.25-12.11-.47-18.17-.86-25.09-1.6-43.87-22-63.88-36.95a168.61 168.61 0 00-83.58-32.44c-9.45-1-19.21-1.07-28.2 1.93-20.19 6.72-32.45 27.47-51.9 36-14.38 6.34-31 5.31-46 10.07-22.33 7.1-41.28 30-41.78 53.53v3.05c-.25 11.89 4 24 4.34 36.17q0 1.65.05 3.31c-.11 13.14-1.68 26.32-6.47 38.67-2.58 6.65-5.9 14.35-5.36 21-.3 4.07.49 7.89 3.32 11l4.83-4.26a146 146 0 00-2.43 26.58c0 44.94 20.44 85.18 52.68 112.26q.28 4.49.54 9.62c.76 14.82 1.36 33.41 1.19 53.67l-47.16 43.35-121.24 55s-110.88 23.42-87 179.19l11.4 96.72h101.23l-.23.51h150.25l.09-.51h357.48l-.07.51h14v-.51zM626.7 465.87a103.92 103.92 0 017.2 19.8 81.11 81.11 0 01-7.77-20.88l.15.27zm-171.82 20q0 2.86-.1 5.77l-.24.34a49 49 0 01.34-6.16z" transform="translate(-51.45 -44.1)"/><path fill="#fdc2cc" d="M614.8 466.3l-20 191-107 34s-139-26-103-101c25.61-53.35 24.9-148.69 22.36-199.29-1-20.54-2.36-33.71-2.36-33.71s182-159 167-16c-2.9 27.69-3.07 49.34-1.46 66.26 6.75 70.44 44.46 58.74 44.46 58.74z"/><path d="M614.8 466.3l-20 191-107 34s-139-26-103-101c25.61-53.35 24.9-148.69 22.36-199.29-1-20.54-2.36-33.71-2.36-33.71s182-159 167-16c-2.9 27.69-3.07 49.34-1.46 66.26 6.75 70.44 44.46 58.74 44.46 58.74z" opacity=".03"/><path d="M571.8 338.3c-2.9 27.69-3.07 49.34-1.46 66.26a145.07 145.07 0 01-163.18-16.55c-1-20.54-2.36-33.71-2.36-33.71s182-159 167-16z" opacity=".1"/><circle cx="500.8" cy="271.31" r="145" fill="#fdc2cc"/><circle cx="500.8" cy="271.31" r="145" opacity=".03"/><path fill="#df691a" d="M924.8 811.3h-752l-11-95c-23-153 84-176 84-176l117-54 46.5-43.5c-15 57 98.5 175.5 98.5 175.5a26.88 26.88 0 002.07-2.15c3.06-3.34 10.37-11.7 27.49-32.44 6.12-7.43 13.51-16.44 22.41-27.38 42.8-52.6 20.84-114.75 14.28-127.6l-.41-.8c-.25-.46-.44-.83-.59-1.09a1.63 1.63 0 00-.15-.27 1.59 1.59 0 01-.11-.2l55 43s2.11.56 6 1.66c21.4 6 96.58 28.31 166 61.34C881.8 571.3 924.8 811.3 924.8 811.3z"/><path fill="#df691a" d="M668.8 582.3c-9-9-70-20-70-20 2 24-72 61-72 61l5.5 188h-35.48l-6-169 17-24 2.07-2.15a330 330 0 0027.49-32.44c6.12-7.43 13.51-16.44 22.41-27.38 42.8-52.6 20.84-114.75 14.28-127.6l-.41-.8c-.24-.47-.43-.83-.59-1.09a1.63 1.63 0 00-.15-.27 1.59 1.59 0 01-.11-.2s18-4 50 30a93.75 93.75 0 0111 14.66c26 41.72 42.92 119.2 34.99 111.27z"/><path d="M668.8 582.3c-9-9-70-20-70-20 2 24-72 61-72 61l5.5 188h-35.48l-6-169 17-24 2.07-2.15a330 330 0 0027.49-32.44c6.12-7.43 13.51-16.44 22.41-27.38 42.8-52.6 20.84-114.75 14.28-127.6l-.41-.8c-.24-.47-.43-.83-.59-1.09a1.63 1.63 0 00-.15-.27 1.59 1.59 0 01-.11-.2s18-4 50 30a93.75 93.75 0 0111 14.66c26 41.72 42.92 119.2 34.99 111.27zM261.8 659.3s47 96 49.5 152.5M773.8 714.31l-13.5 97.5h13.5v-97.5z" opacity=".1"/><path d="M272.3 811.8l74.5-169.5s21-40 26-80 32-103 32-103 67-85 98-73-27 57-27 57 85 33 27 131-59 80-59 80l-28.5 157.5z" opacity=".1"/><path fill="#fdc2cc" d="M270.3 811.8l74.5-169.5s21-40 26-80c3.18-25.43 15.25-60.16 23.62-82.09a125.86 125.86 0 0123.72-39c21.66-24.24 61-63.33 82.66-54.93 31 12-27 57-27 57s85 33 27 131-59 80-59 80l-28.5 157.5z"/><circle cx="545.3" cy="189.81" r="3" fill="#fff" opacity=".15"/><circle cx="531.3" cy="195.81" r="3" fill="#fff" opacity=".15"/><path d="M397.79 88.58c14.47-4.68 30.53-3.67 44.41-9.89 18.77-8.42 30.6-28.8 50.08-35.4 8.68-2.94 18.1-2.83 27.21-1.89a161.07 161.07 0 0180.66 31.87c19.31 14.69 37.43 34.72 61.64 36.29 5.85.38 11.8-.39 17.53.84 14.84 3.18 23.73 18.47 28 33A124.26 124.26 0 01691.66 246c-5.48 8.2-12.16 16.23-13.51 26-1.32 9.58 2.76 19.51.38 28.89-2 7.77-8 13.75-13.84 19.26q-30.25 28.61-61.83 55.75c-10.94-34.76 5.11-72.19 2.61-108.54-1-14.16-6-29.62-18.49-36.3-11.69-6.24-26.63-3-38.46-9-13.2-6.65-18.62-22.4-28.6-33.3-17-18.6-46.51-21-70.28-12.6s-43.2 25.68-62 42.53l-34.17 30.65c-6.67-7.52-1.61-19.06 2-28.46 5.38-14.09 6.56-29.28 6.2-44.24-.29-12-4.43-23.85-4.19-35.53.48-23.04 18.76-45.56 40.31-52.53z" opacity=".1"/><path fill="#865a61" d="M397.79 85.58c14.47-4.68 30.53-3.67 44.41-9.89 18.77-8.42 30.6-28.8 50.08-35.4 8.68-2.94 18.1-2.83 27.21-1.89a161.07 161.07 0 0180.66 31.87c19.31 14.69 37.43 34.72 61.64 36.29 5.85.38 11.8-.39 17.53.84 14.84 3.18 23.73 18.47 28 33A124.26 124.26 0 01691.66 243c-5.48 8.2-12.16 16.23-13.51 26-1.32 9.58 2.76 19.51.38 28.89-2 7.77-8 13.75-13.84 19.26q-30.25 28.61-61.83 55.75c-10.94-34.76 5.11-72.19 2.61-108.54-1-14.16-6-29.62-18.49-36.3-11.69-6.24-26.63-3-38.46-9-13.2-6.65-18.62-22.4-28.6-33.3-17-18.6-46.51-21-70.28-12.6s-43.2 25.68-62 42.53l-34.17 30.65c-6.67-7.52-1.61-19.06 2-28.46 5.38-14.09 6.56-29.28 6.2-44.24-.29-12-4.43-23.85-4.19-35.53.48-23.04 18.76-45.56 40.31-52.53z"/></svg>