<svg viewBox="0 0 378 459"><title>next-karma Logo</title><path fill="#d41143" d="M150.2 47.3L112 85.5l23.5 23.5c12.9 12.9 23.5 23.9 23.5 24.5 0 1.6-17.3 18.5-19 18.5-.8 0-12-10.5-24.7-23.2L92 105.5l-38 38-38 38L39.5 205C52.4 217.9 63 229 63 229.5c0 .6-10.6 11.6-23.5 24.5L16 277.5l38.2 38.2L92.5 354l24-24 24-24 10 10 10 10-24 24-24 24 38 38 38 38 38-38 38-38-23.3-23.3C228.5 338 218 326.8 218 326c0-1.6 16.9-19 18.5-19 .5 0 11.6 10.6 24.5 23.5l23.5 23.5 38-38 38-38-23.3-23.3C324.5 242 314 230.8 314 230c0-.8 10.7-12.2 23.7-25.2l23.8-23.8-38.3-38.2-38.2-38.3-23.8 23.8c-13 13-24.4 23.7-25.2 23.7-1.7 0-19-16.9-19-18.5 0-.6 10.8-11.8 24-25l24-24-37.7-37.7C206.5 26 189.3 9 189 9c-.3 0-17.7 17.2-38.8 38.3zm67.5 9.2l28.7 28.6-19.1 18.9c-10.5 10.5-19.5 19-19.9 19-.5 0-2.8-1.9-5.1-4.2l-4.3-4.2 14.7-14.8L227.5 85l-8.5-8.6c-17.2-17.3-29.1-28.9-30.2-29.3-1.5-.5-38.8 37-38.8 39.1 0 1 .6 1.8 1.3 1.8.6 0 2.1 1.4 3.2 3 1.1 1.7 2.7 3.2 3.6 3.5 1.7.6 17.9 16.9 17.9 18.2 0 .4 1.8 2.1 4 3.7 2.2 1.7 4 3.5 4 4.1 0 .6 2.1 2.9 4.7 5.1 4.6 3.9 9 8.1 16.9 16.5 2.3 2.4 5.7 5.8 7.5 7.5 1.9 1.8 4.2 4.4 5.2 5.8 1.1 1.5 3 3.1 4.3 3.6 4.1 1.6 4 3.8-.2 8.1-2.1 2.1-4.3 3.9-4.9 3.9-.5 0-20.2-19.2-43.6-42.7l-42.5-42.8 28.5-28.7C175.6 41 188.6 28 188.7 28c.2 0 13.2 12.8 29 28.5zm-19.4 18.3c4.8 4.8 8.7 9.2 8.7 9.7 0 .6-4.3 5.3-9.5 10.5l-9.5 9.5-9.5-9.5-9.5-9.5 9.7-9.7c5.4-5.4 10-9.8 10.3-9.8.3 0 4.5 3.9 9.3 8.8zm-80.2 75.9l11.7 12.1-4.4 4.3-4.4 4.3-13.8-13.7C99.7 150.2 92.8 144 92 144c-1.7 0-38 35.9-38 37.5 0 .6 4.8 5.8 10.6 11.6 5.8 5.7 15.1 15.1 20.7 20.8 15.3 15.7 23.7 24.1 29.2 29.2 2.8 2.5 7.5 7.1 10.5 10.2l5.4 5.7-3.9 4c-2.1 2.2-4.4 4-5 4-.5 0-20.3-19.3-43.8-42.8l-42.8-42.8 7.8-7.5c4.3-4.1 10.5-10.2 13.8-13.6 3.3-3.4 12.7-12.9 20.8-21.1l14.8-14.9 7.2 7.2c4 3.9 12.4 12.6 18.8 19.2zm183.5-10.5c8.5 8.4 20.9 21 27.5 28l12 12.7-2.9 3.9c-1.5 2.2-5 5.9-7.7 8.3-6.7 6-11.6 10.9-14.2 14.3-1.2 1.6-4.6 4.9-7.5 7.2l-5.2 4.4-3.8-3.7c-2.1-2-3.8-4.2-3.8-4.8 0-.5 6.3-7.3 14-15l14-13.9-19.2-19.3c-10.6-10.6-19.6-19.3-20-19.3-.4 0-17.8 17.1-38.7 38-20.8 20.9-38.3 38-38.8 38s-2.8-1.9-5.1-4.3l-4.1-4.2 12.7-12.6c7-6.9 13.5-12.9 14.4-13.2.9-.3 2.8-2.3 4.1-4.4 1.4-2.1 5.5-6.7 9.3-10.1 3.8-3.5 7.4-6.9 7.9-7.4 11.1-11.7 37.7-37.8 38.5-37.8.5 0 8 6.9 16.6 15.2zm-127.7 8c2.2 2.1 4.1 4.1 4.1 4.5 0 1.1-65.4 66.3-66.5 66.3-.5 0-2.9-1.9-5.2-4.2l-4.3-4.2 33.2-33.3c18.3-18.3 33.6-33.2 33.9-33 .4.1 2.5 1.9 4.8 3.9zm-72.1 42.5l-9.8 9.8-9.5-9.5-9.5-9.5 9.7-9.7 9.8-9.8 9.5 9.5 9.5 9.5-9.7 9.7zm105.2-9.2c0 1.3-17.2 18.5-18.5 18.5-.5 0-5.1-4.2-10.2-9.2l-9.3-9.3 9.7-9.7 9.8-9.8 9.2 9.2c5.1 5.1 9.3 9.7 9.3 10.3zm87.7-10.3c5.1 5.1 9.3 9.7 9.3 10.3 0 .6-4.3 5.3-9.5 10.5l-9.5 9.5-10-10-10-10 9.7-9.7c5.4-5.4 10-9.8 10.3-9.8.2 0 4.6 4.2 9.7 9.2zm-27.6 33c6 6 11.2 10.8 11.6 10.8.5 0 1.7 1.3 2.8 3 1.1 1.6 3 3.4 4.2 4.1 2.4 1.3 17.3 16.4 17.3 17.7 0 .4 1.8 2 4 3.6 2.2 1.7 4 3.5 4 4.1 0 .6 2.1 2.9 4.7 5.1 4.7 3.9 9.2 8.3 16.9 16.5 2.3 2.4 4.9 5 5.8 5.7 3.3 2.6 1.8 5.4-7.4 14.4-4.9 4.8-9.5 8.8-10 8.8-.6 0-1.3.8-1.7 1.7-.3 1-4.7 5.8-9.7 10.6-10.6 10.3-9.1 8.8-15.8 15.6-2.9 2.9-6.1 6.2-7.1 7.1-1.8 1.7-2.6 1-21-17.2l-19.2-19 4.4-3.9c2.4-2.1 4.6-3.9 5-3.9.3 0 6.9 6.1 14.5 13.5s14.3 13.5 14.7 13.5c1 0 37.9-37 37.9-38 0-.3-17.3-18-38.4-39.2l-38.4-38.5 4.6-4.7c2.8-2.7 4.8-4.1 5.1-3.4.2.7 5.2 6.1 11.2 12zm-94.9.2c6.7 6.8 16.9 17 22.5 22.7 5.6 5.7 14.2 14.4 19.2 19.2 5 4.9 9.1 9.3 9.1 9.7 0 .5 1 1.2 2.1 1.5 2 .7 1.8 1.1-2.7 5.1l-4.8 4.4-2.5-2.3c-1.4-1.2-16.6-16.1-33.8-33.2L150 200.6l4.2-4.3c2.3-2.4 4.5-4.3 4.9-4.3.4 0 6.3 5.6 13.1 12.4zM159 229.5c0 1.3-17.2 18.5-18.5 18.5-.5 0-5.1-4.2-10.2-9.2l-9.3-9.3 9.7-9.7 9.8-9.8 9.2 9.2c5.1 5.1 9.3 9.7 9.3 10.3zm87.7 10.2l-9.7 9.8-10-10-10-10 9.7-9.7 9.8-9.8 10 10 10 10-9.8 9.7zM78 244.5l4.4 4.5-14.2 14.1c-7.9 7.8-14.2 14.5-14 15 .3.8 14 14.8 29.6 30.2l7.9 7.8 4.4-2.9c2.4-1.7 5.1-4.3 6.1-5.9.9-1.5 4.9-5.9 9-9.6 8.8-8.3 3.9-3.5 33.2-33.2l24.7-24.9 4.6 4.6 4.6 4.6-43.1 43.2L92 335.2l-28.7-28.6-28.7-28.5L53.5 259C64 248.6 72.7 240 73 240c.3 0 2.6 2 5 4.5zm195.3 3.2c.6 1-2.9 5.1-12.5 14.6-7.3 7.3-16.1 16.2-19.6 19.8-3.4 3.5-7.7 7.7-9.5 9.4-1.7 1.6-5.3 5.2-7.9 8-2.6 2.7-7.3 7.5-10.5 10.6l-5.9 5.6-4.3-4.3-4.3-4.3 33.3-33.5 33.4-33.4 3.5 3.1c1.9 1.6 3.9 3.6 4.3 4.4zm-74.6 40l-9.7 9.8-10-10-10-10 9.7-9.7 9.8-9.8 10 10 10 10-9.8 9.7zM102 268.5l9.5 9.5-9 9c-4.9 4.9-9.4 9-10 9-.5 0-5.1-4.2-10.2-9.2l-9.3-9.3 9.2-9.2c5.1-5.1 9.5-9.3 9.8-9.3.3 0 4.8 4.3 10 9.5zm193 0l9.5 9.5-9.8 9.8-9.7 9.7-9.7-9.7-9.8-9.8 9.5-9.5c5.2-5.2 9.7-9.5 10-9.5.3 0 4.8 4.3 10 9.5zm-111.2 43.7c12.8 12.8 26.8 26.9 31 31.3 9.6 9.9 22.7 22.9 27.5 27.3l3.7 3.3-15.4 15.5c-8.5 8.5-15.9 15.4-16.5 15.4-.6 0-1.1.5-1.1 1.2 0 1.4-17.5 18.8-19 18.8-.5 0-1.6 1.4-2.5 3-.9 1.7-2.1 3-2.8 3-1.3 0-56.7-55.6-56.7-56.9 0-.4 8.6-9.2 19-19.5 10.5-10.3 19-18.4 19-17.9s1.6 2.5 3.6 4.6l3.6 3.7-4.6 5.7c-2.6 3.1-6.4 6.9-8.4 8.4-4 2.9-13.7 13.7-13.7 15.1 0 .5 8.5 9.4 18.9 19.8l19 18.9 6.5-6.2c3.6-3.4 12.3-12 19.3-19.1 9.9-10.1 12.5-13.3 11.8-14.5-.5-.9-17.7-18.4-38.4-39l-37.4-37.4 3.6-3.9c2-2.1 4.3-3.8 5.1-3.8.8 0 12 10.5 24.9 23.2zm14.7 71.8l-9.5 9.5-9.7-9.7-9.8-9.8 9.5-9.5 9.5-9.5 9.7 9.7 9.8 9.8-9.5 9.5z"/></svg>