<svg xmlns="http://www.w3.org/2000/svg" width="1224" height="1224" preserveAspectRatio="xMidYMid meet" version="1.0" viewBox="0 0 918 918"><metadata>Created by potrace 1.11, written by Peter Selinger 2001-2013</metadata><g fill="#000" stroke="none"><path d="M4575 8989 c-5 -5 -351 -349 -768 -764 l-757 -754 362 -364 c328 -329 488 -493 557 -570 l24 -26 -26 -33 c-44 -58 -231 -241 -315 -311 -47 -38 -41 -41 -260 168 -63 61 -256 251 -429 422 l-313 313 -760 -760 -760 -760 363 -363 c375 -377 553 -560 567 -588 11 -19 -96 -132 -597 -636 l-333 -333 765 -765 765 -765 480 480 480 480 195 -195 c107 -107 195 -199 195 -205 0 -6 -214 -224 -475 -485 l-475 -475 760 -760 760 -760 755 755 c415 415 755 759 755 765 0 5 -141 151 -312 323 -353 355 -494 501 -592 615 -18 21 -18 22 10 59 83 109 316 338 344 338 15 0 226 -202 602 -577 l358 -358 755 755 c415 415 755 759 755 765 0 5 -141 151 -312 323 -421 423 -611 623 -606 638 11 31 174 202 615 645 l333 334 -765 765 -765 765 -309 -307 c-302 -302 -524 -518 -592 -578 -86 -74 -74 -69 -106 -49 -51 33 -280 255 -329 320 -23 30 -25 36 -13 51 30 37 281 293 607 620 l342 344 -747 745 c-411 410 -754 749 -763 754 -8 4 -19 4 -25 -1z m598 -949 c291 -289 536 -531 543 -538 8 -7 14 -17 14 -22 0 -11 -541 -548 -724 -718 -55 -52 -50 -53 -164 56 l-73 70 296 297 296 296 -303 302 c-389 387 -466 459 -483 450 -71 -41 -717 -692 -752 -758 -13 -25 -8 -55 9 -55 21 0 480 -456 502 -498 9 -18 20 -32 24 -32 5 0 24 -14 43 -31 19 -17 41 -36 50 -42 9 -7 28 -30 42 -52 15 -22 50 -60 79 -85 69 -58 529 -519 592 -593 27 -32 70 -70 95 -85 25 -14 49 -31 53 -37 23 -31 -3 -77 -85 -154 -61 -57 -63 -57 -114 -9 -171 161 -1097 1083 -1603 1596 l-72 73 103 104 c57 57 315 315 573 574 l470 471 29 -27 c17 -16 268 -264 560 -553z m-385 -370 c68 -69 132 -137 143 -151 19 -27 19 -27 -10 -65 -16 -22 -101 -112 -189 -201 l-161 -163 -191 190 -191 190 164 163 c90 89 180 177 201 195 l38 34 36 -34 c20 -18 92 -89 160 -158z m-1857 -1259 c348 -354 453 -463 463 -478 7 -12 -144 -173 -163 -173 -4 0 -100 91 -212 202 -198 196 -353 338 -369 338 -31 0 -733 -692 -752 -741 -3 -8 0 -24 8 -34 17 -25 779 -798 1019 -1033 98 -97 250 -247 337 -333 l158 -157 -71 -71 c-101 -102 -99 -101 -161 -44 -109 101 -464 451 -1061 1047 l-619 618 78 75 c131 124 360 354 719 717 187 190 343 345 346 346 3 0 129 -125 280 -279z m3635 225 c6 -6 64 -60 129 -121 180 -168 487 -478 774 -781 51 -54 109 -116 129 -136 l35 -37 -53 -68 c-48 -62 -101 -117 -295 -302 -38 -37 -95 -96 -125 -131 -68 -79 -83 -93 -155 -155 -32 -27 -69 -60 -83 -72 -14 -13 -31 -23 -38 -23 -15 0 -101 83 -133 128 -23 32 -23 34 -5 55 39 46 156 167 347 358 l197 198 -308 308 c-170 169 -346 343 -391 386 -82 78 -83 79 -104 60 -38 -33 -359 -348 -841 -828 -654 -651 -683 -678 -704 -666 -10 5 -52 43 -94 85 l-77 75 182 180 c205 203 265 259 321 304 58 47 98 87 131 132 29 40 702 713 960 961 l139 134 26 -17 c14 -9 30 -21 36 -27z m-2258 -444 c65 -62 65 -62 46 -85 -72 -85 -950 -963 -1262 -1261 -60 -58 -56 -60 -170 52 l-72 71 528 528 c291 290 593 589 672 664 l142 137 26 -22 c15 -11 55 -49 90 -84z m-1458 -442 l190 -190 -195 -195 -195 -195 -190 190 -190 190 192 194 c106 107 194 195 196 195 1 1 87 -84 192 -189z m2040 -126 c66 -74 64 -70 41 -101 -32 -42 -258 -270 -308 -310 l-43 -35 -42 34 c-24 20 -112 103 -196 187 l-152 151 195 195 195 195 138 -138 c75 -77 153 -157 172 -178z m1760 183 c142 -140 240 -245 240 -258 0 -11 -89 -106 -247 -266 l-132 -133 -201 200 -201 201 188 184 c103 102 193 189 198 194 6 6 12 10 15 11 3 0 66 -60 140 -133z m-2013 -1102 c348 -349 633 -639 633 -644 0 -5 17 -19 37 -31 l37 -22 -85 -79 c-46 -43 -90 -79 -98 -79 -7 0 -67 53 -133 118 -173 169 -493 484 -881 867 l-337 334 86 86 c47 47 91 85 97 85 6 0 296 -286 644 -635z m1326 588 c59 -67 300 -306 457 -453 208 -195 404 -391 436 -435 16 -22 38 -47 49 -56 11 -9 31 -26 43 -37 13 -12 27 -22 31 -24 4 -2 22 -23 41 -48 19 -25 64 -72 100 -105 140 -128 490 -486 490 -501 0 -39 -43 -98 -155 -209 -123 -123 -213 -205 -226 -205 -3 0 -25 -24 -47 -52 -22 -29 -76 -89 -120 -133 -546 -544 -529 -528 -554 -522 -31 8 -103 75 -465 431 l-303 300 28 25 c102 93 154 131 170 122 9 -6 51 -43 94 -83 42 -40 148 -141 235 -224 87 -84 178 -168 202 -188 52 -44 23 -63 250 159 224 219 423 421 505 513 l47 53 -68 71 c-148 153 -437 446 -939 949 -288 289 -524 529 -524 532 0 14 162 167 177 167 2 0 23 -21 46 -47z m-2021 -642 c31 -35 44 -59 40 -70 -15 -41 -336 -356 -362 -356 -15 0 -107 84 -251 227 l-139 138 195 195 195 195 138 -138 c75 -76 158 -162 184 -191z m1798 129 c105 -104 190 -194 190 -199 0 -5 -86 -95 -190 -200 l-190 -190 -200 199 -200 200 187 189 c104 104 194 190 201 190 7 1 98 -84 202 -189z m-3366 -495 c43 -42 76 -80 74 -85 -2 -5 -123 -130 -269 -278 -147 -148 -270 -279 -274 -292 -8 -26 -36 3 413 -447 l322 -323 42 22 c23 13 75 57 116 98 482 490 1390 1400 1395 1400 9 0 177 -167 177 -176 0 -10 -1703 -1712 -1716 -1716 -7 -2 -269 252 -582 564 l-571 568 381 380 c315 314 384 378 398 370 9 -5 52 -43 94 -85z m3792 51 c18 -18 48 -47 67 -63 52 -45 52 -55 -1 -120 -54 -67 -1122 -1145 -1245 -1258 l-29 -26 -36 33 c-21 18 -59 57 -86 86 l-49 52 664 665 c365 366 667 665 672 665 5 0 24 -15 43 -34z m-1386 -516 c104 -104 190 -194 190 -199 0 -5 -85 -95 -190 -200 l-190 -190 -200 199 -200 199 188 190 c103 104 192 190 199 190 7 1 98 -84 203 -189z m-1921 -20 l182 -180 -140 -139 c-77 -76 -162 -157 -188 -179 -46 -41 -48 -41 -73 -25 -33 22 -84 70 -242 225 l-129 128 187 185 c155 153 190 183 204 175 10 -5 100 -91 199 -190z m3872 -12 c88 -86 159 -162 159 -168 0 -5 -85 -96 -190 -200 l-190 -190 -195 195 -195 195 159 158 c88 87 176 173 196 191 l37 32 30 -28 c17 -15 102 -99 189 -185z m-2713 -412 c86 -63 444 -416 1284 -1262 124 -126 272 -272 327 -324 l100 -94 -257 -256 c-259 -257 -369 -360 -383 -360 -5 0 -16 -14 -25 -32 -20 -39 -337 -354 -364 -363 -11 -4 -38 -33 -60 -66 -23 -32 -45 -59 -50 -59 -15 0 -153 133 -550 530 -491 491 -592 599 -581 617 15 28 554 564 694 690 29 27 52 40 62 37 8 -3 15 -10 15 -15 0 -5 26 -36 58 -70 31 -33 58 -64 60 -68 1 -4 -6 -17 -15 -29 -10 -11 -36 -42 -58 -69 -21 -26 -78 -84 -124 -128 -146 -137 -249 -243 -292 -300 -47 -62 -50 -52 36 -144 100 -108 674 -681 682 -681 15 0 215 193 509 492 167 170 244 260 244 285 0 19 -66 86 -847 870 -365 365 -663 667 -663 671 1 16 143 152 159 152 4 0 22 -11 39 -24z m763 -1497 l189 -190 -93 -92 c-51 -51 -136 -136 -189 -189 l-97 -98 -191 190 c-104 104 -190 194 -190 200 0 15 352 368 368 369 7 1 98 -85 203 -190z" transform="translate(0.000000,918.000000) scale(0.100000,-0.100000)"/></g></svg>