<svg xmlns="http://www.w3.org/2000/svg" width="24" height="24" aria-hidden="true"><path fill="currentColor" d="M19.58 18.646l-3.48-6.957c-.236-.472-1.007-.472-1.244 0l-3.478 6.957a.696.696 0 0 0 1.245.622l.851-1.702h4.01l.851 1.702a.695.695 0 1 0 1.244-.622zm-5.411-2.472l1.31-2.619 1.308 2.619H14.17zM11.78 14.05a.696.696 0 1 0 .44-1.319 10.619 10.619 0 0 1-1.956-.89c1.282-1.42 1.647-3.129 1.719-4.71h1.408a.695.695 0 1 0 0-1.392H9.913v-.696a.695.695 0 1 0-1.391 0v.696H5.043a.695.695 0 1 0 0 1.391h5.548c-.07 1.422-.4 2.801-1.497 3.923a9.565 9.565 0 0 1-2.08-2.221.696.696 0 0 0-1.157.772c.58.872 1.3 1.651 2.117 2.33-.492.3-1.071.569-1.759.799a.695.695 0 1 0 .44 1.318c1.019-.34 1.838-.764 2.51-1.241a11.91 11.91 0 0 0 2.615 1.24z"/></svg>