<svg xmlns="http://www.w3.org/2000/svg" xmlns:xlink="http://www.w3.org/1999/xlink" viewBox="0 0 798.82 755.15"><defs><linearGradient id="a" x1="589.65" x2="589.65" y1="790.71" y2="501.48" gradientTransform="translate(.01 -.01)" gradientUnits="userSpaceOnUse"><stop offset="0" stop-color="gray" stop-opacity=".25"/><stop offset=".54" stop-color="gray" stop-opacity=".12"/><stop offset="1" stop-color="gray" stop-opacity=".1"/></linearGradient><linearGradient id="c" x1="411.34" x2="411.34" y1="295.04" y2="145.7" xlink:href="#a"/><linearGradient id="d" x1="545.52" x2="545.52" y1="654.39" y2="72.43" gradientTransform="translate(-198.33 -72.44)" xlink:href="#a"/><linearGradient id="e" x1="725.88" x2="725.88" y1="600.13" y2="322.86" xlink:href="#a"/><linearGradient id="f" x1="637.94" x2="637.94" y1="827.57" y2="758.57" gradientTransform="translate(-198.33 -72.44)" xlink:href="#a"/><linearGradient id="b" x1="544.65" x2="544.65" y1="346" y2="205.86" gradientUnits="userSpaceOnUse"><stop offset="0" stop-opacity=".12"/><stop offset=".55" stop-opacity=".09"/><stop offset="1" stop-opacity=".02"/></linearGradient><linearGradient id="g" x1="544.65" x2="544.65" y1="339.86" y2="212" xlink:href="#a"/><linearGradient id="h" x1="551.34" x2="551.34" y1="291.95" y2="217.12" gradientTransform="matrix(1 .00227 -.00227 1 -197.33 -73.75)" xlink:href="#b"/><linearGradient id="i" x1="396.05" x2="396.05" y1="399.86" y2="262.83" xlink:href="#a"/><linearGradient id="j" x1="386.87" x2="386.87" y1="501.4" y2="378" xlink:href="#a"/><linearGradient id="k" x1="382.07" x2="382.07" y1="603.69" y2="494.16" xlink:href="#a"/><linearGradient id="l" x1="347.18" x2="347.18" y1="384.57" y2="323.57" xlink:href="#b"/><linearGradient id="m" x1="958.8" x2="958.8" y1="334.16" y2="269.01" gradientTransform="rotate(32.36 1024.20262348 -101.53783273)" xlink:href="#a"/></defs><path fill="none" stroke="#69f0ae" stroke-miterlimit="10" stroke-width="9" d="M23.66 448.57s-.68-2-1.78-5.72"/><path fill="none" stroke="#69f0ae" stroke-dasharray="12.04 12.04" stroke-miterlimit="10" stroke-width="9" d="M18.66 431.25c-24.31-93.6-100.1-524.98 659.66-255.68"/><path fill="none" stroke="#69f0ae" stroke-miterlimit="10" stroke-width="9" d="M684.01 177.57l5.65 2"/><path fill="url(#a)" d="M794.94 582.69a81.21 81.21 0 00-161-15.14l-249.59-6.77 2.74 42.88s-35.59 82.12 151.46 104v83h216.24v-138a81.16 81.16 0 0040.15-69.97z" transform="translate(-198.34 -72.43)"/><path fill="#f6b9ad" d="M197.32 533.03s-34.08 78.64 145.05 99.62v79.52h207.09v-210.6l-354.8-9.61z"/><path fill="url(#c)" d="M499.16 277.29a38.18 38.18 0 01-52.5 11.93l-111.19-73.27a38.18 38.18 0 01-11.93-52.5A38.18 38.18 0 01376 151.52l111.19 73.27a38.18 38.18 0 0111.97 52.5z" transform="translate(-198.34 -72.43)"/><path fill="#f6b9ad" d="M294.66 200.85a35.49 35.49 0 01-48.8 11.09l-103.39-68.11a35.49 35.49 0 01-11.09-48.8 35.49 35.49 0 0148.8-11.09l103.37 68.12a35.49 35.49 0 0111.11 48.79z"/><circle cx="510.14" cy="512.94" r="77.77" fill="#f6b9ad"/><rect width="322.42" height="581.96" x="185.97" fill="url(#d)" rx="12.25" ry="12.25"/><rect width="313.7" height="566.24" x="190.33" y="7.87" fill="#fff" rx="13.64" ry="13.64"/><path fill="#00d1b2" d="M425.99 22.06a25.43 25.43 0 01-25.07 21.63H292.58a25.43 25.43 0 01-25.06-21.63h-57.4a11.91 11.91 0 00-11.92 11.91v514a11.91 11.91 0 0011.91 11.92h274.14a11.91 11.91 0 0011.92-11.91v-514a11.91 11.91 0 00-11.91-11.92z"/><rect width="69.91" height="4.37" x="312.67" y="28.84" fill="#dbdbdb" rx="2" ry="2"/><circle cx="397.43" cy="30.59" r="2.62" fill="#dbdbdb"/><path fill="url(#e)" d="M758.76 599.08c-22.57 5.22-38.06-9.5-43.28-32.06l-51.86-192.56a42.24 42.24 0 0131.55-50.51 42.24 42.24 0 0150.51 31.55L788 553c5.22 22.6-6.68 40.86-29.24 46.08z" transform="translate(-198.34 -72.43)"/><rect width="70.78" height="282.61" x="693.86" y="330.01" fill="#f6b9ad" rx="35.39" ry="35.39" transform="rotate(-13.01 312.7746539 1304.98058564)"/><path fill="url(#f)" d="M291.59 686.15h296v69h-296z"/><path fill="#ff8976" d="M299.59 694.15h280v54h-280z"/><path fill="url(#b)" d="M611.56 254.81l-22.94-17.27 10-13-16.69-13.1-10.43 13.22-23.59-17.75a5.19 5.19 0 00-6.23 0l-62.53 46.55c-2.37 2-4.59 4.29-4.61 9.53h-.07l-.16 71.72v3.19a7.82 7.82 0 007.8 7.84h3.08l59.29.13 62.38.14a7.82 7.82 0 007.84-7.8l.17-74.78h.13c0-5.25-1.07-6.62-3.44-8.62z" transform="translate(-198.34 -72.43)"/><path fill="url(#g)" d="M608.84 264.52c0-4.78-1-6-3.14-7.85L547.63 213a4.74 4.74 0 00-5.69 0l-57.05 42.48a10.06 10.06 0 00-4.2 8.69h-.06l-.15 65.44v2.91a7.14 7.14 0 007.12 7.15h2.81l54.1.12 56.91.13a7.14 7.14 0 007.15-7.12l.15-68.23z" transform="translate(-198.34 -72.43)"/><path fill="#00d1b2" d="M283.33851593 192.00205653l125.82967611.28549897-.15707775 69.2298218a4.18 4.18 0 01-4.18947335 4.17050513l-116.99969884-.26546435a4.61 4.61 0 01-4.59952838-4.62044788l.15610211-68.7998229z"/><path fill="#fff" d="M283.33851593 192.00205653l125.82967611.28549897-.15707775 69.2298218a4.18 4.18 0 01-4.18947335 4.17050513l-116.99969884-.26546435a4.61 4.61 0 01-4.59952838-4.62044788l.15610211-68.7998229z" opacity=".2"/><path fill="#f5f5f5" d="M283.35 191.98l-.14 63.59a9.77 9.77 0 009.75 9.79l106.29.24"/><path fill="#fff" d="M409.19 192.26l-.14 63.63a9.77 9.77 0 01-9.79 9.75l-106.29-.24"/><path fill="#00d1b2" d="M343.59 142.23l-56 41.3a9.75 9.75 0 00-4.13 8.45l125.89.4c0-4.65-1-5.87-3.08-7.63l-57.05-42.5a4.69 4.69 0 00-5.63-.02z"/><path d="M343.59 142.23l-56 41.3a9.75 9.75 0 00-4.13 8.45l125.89.4c0-4.65-1-5.87-3.08-7.63l-57.05-42.5a4.69 4.69 0 00-5.63-.02z" opacity=".2"/><path fill="url(#h)" d="M395.56 156.6l-15.23-11.94-36.81 46.62-19.78-15.34-12.39 15.75 28.79 21.99 7.14 5.73 48.28-62.81z"/><path fill="#fff" d="M394.44 156.31l-13.8-10.58-36.57 47.69-20.31-15.57-10.59 13.8 27.21 20.84 6.98 5.23 47.08-61.41z"/><path fill="url(#i)" d="M475.28 382.24a37.9 37.9 0 01-52.11 11.84l-94.5-61.53a37.9 37.9 0 01-11.84-52.11 37.9 37.9 0 0152.11-11.84l94.5 61.53a37.9 37.9 0 0111.84 52.11z" transform="translate(-198.34 -72.43)"/><path fill="#f6b9ad" d="M271.92 306.57a35.49 35.49 0 01-48.8 11.09l-88.51-57.63a35.49 35.49 0 01-11.09-48.8 35.49 35.49 0 0148.8-11.09l88.51 57.63a35.49 35.49 0 0111.09 48.8z"/><path fill="url(#j)" d="M456 483.86a37.72 37.72 0 01-51.87 11.79l-74.58-48.25a37.72 37.72 0 01-11.79-51.87 37.72 37.72 0 0151.87-11.79L444.2 432a37.72 37.72 0 0111.8 51.86z" transform="translate(-198.34 -72.43)"/><path fill="url(#k)" d="M437.28 586a38.06 38.06 0 01-52.34 11.9l-46.19-33.7a38.06 38.06 0 01-11.9-52.34A38.06 38.06 0 01379.19 500l46.19 33.69a38.06 38.06 0 0111.9 52.31z" transform="translate(-198.34 -72.43)"/><path fill="#f6b9ad" d="M235.21 511.06a35.49 35.49 0 01-48.8 11.09l-43.07-31.42a35.49 35.49 0 01-11.09-48.8 35.49 35.49 0 0148.8-11.09l43.07 31.42a35.49 35.49 0 0111.09 48.8z"/><path fill="url(#l)" d="M245.18 323.57h204v61h-204z"/><path fill="#69f0ae" d="M252.18 329.57h190v44h-190z"/><path fill="url(#m)" d="M795.23 214.52l3.59.56-.56-.53h.3l-.47-.16L733 152.66l-15.8 24.93-13.14 22.74 6.09.95-2.7 12.32 87.78.92z"/><path fill="#00d1b2" d="M719.93 178.89l-12 20.81 88 14.33-56.68-39.47-19.32 4.33z"/><path d="M719.93 178.89l-12 20.81 88 14.33-56.68-39.47-19.32 4.33z" opacity=".2"/><path fill="#00d1b2" d="M734.38 156.09l61.55 57.94-76-35.14 14.45-22.8z"/><path fill="#00d1b2" d="M711.17 211.93l84.52 1.61-78.9-28.02-5.62 26.41z"/><path fill="#f6b9ad" d="M253.56 408.82a35.49 35.49 0 01-48.8 11.09l-70.16-45.4a35.49 35.49 0 01-11.09-48.8 35.49 35.49 0 0148.8-11.14l70.16 45.4a35.49 35.49 0 0111.09 48.85z"/></svg>